<?xml version="1.0" encoding="utf-8"?>
<!-- Generator: Adobe Illustrator 25.4.1, SVG Export Plug-In . SVG Version: 6.00 Build 0)  -->
<svg version="1.1" id="图层_1" xmlns="http://www.w3.org/2000/svg" xmlns:xlink="http://www.w3.org/1999/xlink" x="0px" y="0px"
	 viewBox="0 0 183 183" style="enable-background:new 0 0 183 183;" xml:space="preserve">
<style type="text/css">
	.st0{fill:#FFFFFF;}
	.st1{fill:#E9EAEB;}
	.st2{fill:#2A5082;}
	.st3{fill:#A3D4FF;}
</style>
<g id="图层_2_00000082344594715125391720000015582208840670232254_">
	<rect y="5" class="st0" width="183" height="173"/>
</g>
<g id="图层_1_00000142166098925605566770000007562420040021630902_">
	<path class="st1" d="M77,94.1c18.6,24.1,53.1,28.6,77.2,10s28.6-53.1,10-77.2S111.1-1.7,87,16.8S58.4,70,77,94.1z"/>
	<path class="st0" d="M113.3,67.7V24.3H35v43.5H3.1v58h176.8v-58h-66.6V67.7z"/>
	<path class="st2" d="M116.2,59h-5.8V27.2H37.9V59h-5.8V21.4h84.1V59z M75.6,79.3H93v5.8H75.6V79.3z M182.8,128.6h-11.6v-5.8h5.8
		V70.6h-14.5v-5.8h20.3V128.6z M104.6,93.8h-5.8v-29h55.1v5.8h-49.3C104.6,70.6,104.6,93.8,104.6,93.8z"/>
	<path class="st2" d="M165.4,79.3h-5.8V53.2c0-4.9-3.8-8.7-8.7-8.7h-23.2v-5.8H151c8.1,0,14.5,6.4,14.5,14.5
		C165.4,53.2,165.4,79.3,165.4,79.3z"/>
	<path class="st2" d="M137.3,55.3l-13.6-13.6l13.6-13.9l4.1,4.3l-9.6,9.6l9.6,9.3L137.3,55.3z M20.5,128.6H0.2V64.8h84.1v29h-5.8
		V70.6H6v52.2h14.5V128.6z"/>
	<path class="st2" d="M29.2,122.8h31.9v5.8H29.2V122.8z M165.4,177.9H66.9V99.6h98.6v78.3H165.4z M72.7,172.1h87v-66.7h-87
		C72.7,105.4,72.7,172.1,72.7,172.1z"/>
	<path class="st3" d="M127.8,122.8c0,4.8,3.9,8.7,8.7,8.7s8.7-3.9,8.7-8.7l0,0c0-4.8-3.9-8.7-8.7-8.7S127.8,118,127.8,122.8
		L127.8,122.8z"/>
	<path class="st2" d="M136.5,134.4c-6.4,0-11.6-5.2-11.6-11.6c0-6.4,5.2-11.6,11.6-11.6s11.6,5.2,11.6,11.6
		C148.1,129.2,142.8,134.4,136.5,134.4z M136.5,117c-3.2,0-5.8,2.6-5.8,5.8s2.6,5.8,5.8,5.8s5.8-2.6,5.8-5.8S139.7,117,136.5,117z"
		/>
	<path class="st3" d="M133.6,143.1l-10.1,10.1l-21.7-21.7l-31.9,31.9V175h92.8v-5.8L133.6,143.1z"/>
	<path class="st2" d="M165.4,177.9H66.9v-15.7l34.8-34.8l21.7,21.7l10.1-10.1l31.9,28.7V177.9L165.4,177.9z M72.7,172.1h87v-1.7
		l-26.1-23.5l-6.1,6.1l8.1,8.1l-4.1,4.3l-29.9-29.9l-29,29L72.7,172.1L72.7,172.1z M159.7,85.1h5.8v5.8h-5.8V85.1z M55.3,157.6H32.1
		c-8.1,0-14.5-6.4-14.5-14.5v-29h5.8v29c0,4.9,3.8,8.7,8.7,8.7h23.2V157.6z"/>
	<path class="st2" d="M45.7,168.3l-4.1-4.3l9.6-9.3l-9.6-9.6l4.1-4.3l13.6,13.9L45.7,168.3z M17.6,102.5h5.8v5.8h-5.8
		C17.6,108.3,17.6,102.5,17.6,102.5z M17.6,90.9h5.8v5.8h-5.8C17.6,96.7,17.6,90.9,17.6,90.9z M17.6,79.3h5.8v5.8h-5.8
		C17.6,85.1,17.6,79.3,17.6,79.3z"/>
</g>
</svg>
