<?xml version="1.0" encoding="utf-8"?>
<!-- Generator: Adobe Illustrator 25.4.1, SVG Export Plug-In . SVG Version: 6.00 Build 0)  -->
<svg version="1.1" xmlns="http://www.w3.org/2000/svg" xmlns:xlink="http://www.w3.org/1999/xlink" x="0px" y="0px"
	 viewBox="0 0 205 205" style="enable-background:new 0 0 205 205;" xml:space="preserve">
<style type="text/css">
	.st0{fill:#FFFFFF;stroke:#2A5082;stroke-width:6;stroke-miterlimit:10;}
	.st1{fill:#E9EAEB;}
	.st2{fill:#FFFFFF;}
	.st3{fill:#2A5082;}
	.st4{fill:#A3D4FF;}
</style>
<g id="图层_2">
	<rect x="2.5" y="2.5" class="st0" width="200" height="200"/>
</g>
<g id="图层_1">
	<path class="st1" d="M88,105.1c18.6,24.1,53.1,28.6,77.2,10s28.6-53.1,10-77.2S122.1,9.3,98,27.8S69.4,81,88,105.1z"/>
	<path class="st2" d="M124.3,78.7V35.3H46v43.5H14.1v58h176.8v-58H124.3z"/>
	<path class="st3" d="M127.2,70h-5.8V38.2H48.9V70h-5.8V32.4h84.1L127.2,70z M86.6,90.3H104v5.8H86.6V90.3z M193.8,139.6h-11.6v-5.8
		h5.8V81.6h-14.5v-5.8h20.3V139.6z M115.6,104.8h-5.8v-29h55.1v5.8h-49.3V104.8z"/>
	<path class="st3" d="M176.4,90.3h-5.8V64.2c0-4.9-3.8-8.7-8.7-8.7h-23.2v-5.8H162c8.1,0,14.5,6.4,14.5,14.5
		C176.4,64.2,176.4,90.3,176.4,90.3z"/>
	<path class="st3" d="M148.3,66.3l-13.6-13.6l13.6-13.9l4.1,4.3l-9.6,9.6l9.6,9.3L148.3,66.3z M31.5,139.6H11.2V75.8h84.1v29h-5.8
		V81.6H17v52.2h14.5L31.5,139.6z"/>
	<path class="st3" d="M40.2,133.8h31.9v5.8H40.2V133.8z M176.4,188.9H77.9v-78.3h98.6V188.9z M83.7,183.1h87v-66.7h-87
		C83.7,116.4,83.7,183.1,83.7,183.1z"/>
	<path class="st4" d="M138.8,133.8c0,4.8,3.9,8.7,8.7,8.7s8.7-3.9,8.7-8.7c0,0,0,0,0,0c0-4.8-3.9-8.7-8.7-8.7S138.8,129,138.8,133.8
		C138.8,133.8,138.8,133.8,138.8,133.8z"/>
	<path class="st3" d="M147.5,145.4c-6.4,0-11.6-5.2-11.6-11.6c0-6.4,5.2-11.6,11.6-11.6s11.6,5.2,11.6,11.6
		C159.1,140.2,153.8,145.4,147.5,145.4z M147.5,128c-3.2,0-5.8,2.6-5.8,5.8c0,3.2,2.6,5.8,5.8,5.8c3.2,0,5.8-2.6,5.8-5.8
		C153.3,130.6,150.7,128,147.5,128z"/>
	<path class="st4" d="M144.6,154.1l-10.1,10.1l-21.7-21.7l-31.9,31.9V186h92.8v-5.8L144.6,154.1z"/>
	<path class="st3" d="M176.4,188.9H77.9v-15.7l34.8-34.8l21.7,21.7l10.1-10.1l31.9,28.7V188.9L176.4,188.9z M83.7,183.1h87v-1.7
		l-26.1-23.5l-6.1,6.1l8.1,8.1l-4.1,4.3l-29.9-29.9l-29,29L83.7,183.1L83.7,183.1z M170.7,96.1h5.8v5.8h-5.8V96.1z M66.3,168.6H43.1
		c-8.1,0-14.5-6.4-14.5-14.5v-29h5.8v29c0,4.9,3.8,8.7,8.7,8.7h23.2V168.6z"/>
	<path class="st3" d="M56.7,179.3l-4.1-4.3l9.6-9.3l-9.6-9.6l4.1-4.3l13.6,13.9L56.7,179.3z M28.6,113.5h5.8v5.8h-5.8V113.5z
		 M28.6,101.9h5.8v5.8h-5.8V101.9z M28.6,90.3h5.8v5.8h-5.8V90.3z"/>
</g>
</svg>
